<mxfile host="app.diagrams.net" modified="2020-11-09T14:48:02.335Z" agent="5.0 (Windows)" etag="s2QDcRkyWrJTQRI5ucl6" version="13.9.2" type="github">
  <diagram id="nfgbyhbLuX8dThEdEbZW" name="Page-1">
    <mxGraphModel dx="1038" dy="587" grid="1" gridSize="10" guides="1" tooltips="1" connect="1" arrows="1" fold="1" page="1" pageScale="1" pageWidth="827" pageHeight="1169" math="0" shadow="0">
      <root>
        <mxCell id="0" />
        <mxCell id="1" parent="0" />
        <mxCell id="PlhKzF1dePJYbplFn7f4-1" value="" style="group" vertex="1" connectable="0" parent="1">
          <mxGeometry x="364" y="230" width="100" height="90" as="geometry" />
        </mxCell>
        <mxCell id="PlhKzF1dePJYbplFn7f4-2" value="A" style="triangle;whiteSpace=wrap;html=1;rotation=90;fillColor=#1A1A1A;" vertex="1" parent="PlhKzF1dePJYbplFn7f4-1">
          <mxGeometry x="12.5" width="75" height="102.85714285714285" as="geometry" />
        </mxCell>
        <mxCell id="PlhKzF1dePJYbplFn7f4-3" value="" style="triangle;whiteSpace=wrap;html=1;rotation=90;strokeColor=#FFFFFF;" vertex="1" parent="PlhKzF1dePJYbplFn7f4-1">
          <mxGeometry x="31.25" y="-12.857142857142856" width="37.5" height="64.28571428571428" as="geometry" />
        </mxCell>
        <mxCell id="PlhKzF1dePJYbplFn7f4-4" value="Adder" style="text;html=1;strokeColor=none;fillColor=none;align=center;verticalAlign=middle;whiteSpace=wrap;rounded=0;fontColor=#FFFFFF;" vertex="1" parent="PlhKzF1dePJYbplFn7f4-1">
          <mxGeometry x="31.25" y="35" width="40" height="20" as="geometry" />
        </mxCell>
        <mxCell id="PlhKzF1dePJYbplFn7f4-22" style="edgeStyle=orthogonalEdgeStyle;rounded=0;orthogonalLoop=1;jettySize=auto;html=1;entryX=0.5;entryY=0;entryDx=0;entryDy=0;fontColor=#00CC00;" edge="1" parent="1" source="PlhKzF1dePJYbplFn7f4-8" target="PlhKzF1dePJYbplFn7f4-9">
          <mxGeometry relative="1" as="geometry" />
        </mxCell>
        <mxCell id="PlhKzF1dePJYbplFn7f4-26" style="edgeStyle=orthogonalEdgeStyle;rounded=0;orthogonalLoop=1;jettySize=auto;html=1;entryX=0.028;entryY=0.85;entryDx=0;entryDy=0;entryPerimeter=0;strokeColor=#00CC00;fontColor=#00CC00;" edge="1" parent="1" source="PlhKzF1dePJYbplFn7f4-8" target="PlhKzF1dePJYbplFn7f4-2">
          <mxGeometry relative="1" as="geometry" />
        </mxCell>
        <mxCell id="PlhKzF1dePJYbplFn7f4-8" value="PC" style="rounded=0;whiteSpace=wrap;html=1;fontColor=#1A1A1A;" vertex="1" parent="1">
          <mxGeometry x="270" y="152.5" width="120" height="35" as="geometry" />
        </mxCell>
        <mxCell id="PlhKzF1dePJYbplFn7f4-23" style="edgeStyle=orthogonalEdgeStyle;rounded=0;orthogonalLoop=1;jettySize=auto;html=1;entryX=0.5;entryY=0;entryDx=0;entryDy=0;fontColor=#00CC00;" edge="1" parent="1" source="PlhKzF1dePJYbplFn7f4-9" target="PlhKzF1dePJYbplFn7f4-16">
          <mxGeometry relative="1" as="geometry" />
        </mxCell>
        <mxCell id="PlhKzF1dePJYbplFn7f4-9" value="PC-Temp" style="rounded=0;whiteSpace=wrap;html=1;fontColor=#1A1A1A;" vertex="1" parent="1">
          <mxGeometry x="150" y="257.5" width="120" height="35" as="geometry" />
        </mxCell>
        <mxCell id="PlhKzF1dePJYbplFn7f4-12" value="" style="group" vertex="1" connectable="0" parent="1">
          <mxGeometry x="430" y="160" width="80" height="50" as="geometry" />
        </mxCell>
        <mxCell id="PlhKzF1dePJYbplFn7f4-5" value="&lt;font color=&quot;#1A1A1A&quot;&gt;MuxINC&lt;/font&gt;" style="shape=trapezoid;perimeter=trapezoidPerimeter;whiteSpace=wrap;html=1;fixedSize=1;fontColor=#FFFFFF;direction=west;" vertex="1" parent="PlhKzF1dePJYbplFn7f4-12">
          <mxGeometry width="80" height="50" as="geometry" />
        </mxCell>
        <mxCell id="PlhKzF1dePJYbplFn7f4-6" value="0&lt;font color=&quot;#1A1A1A&quot;&gt;0 &amp;nbsp; &amp;nbsp; &amp;nbsp; &amp;nbsp; &amp;nbsp;&amp;nbsp; 1&lt;br&gt;&lt;/font&gt;" style="text;html=1;strokeColor=none;fillColor=none;align=center;verticalAlign=middle;whiteSpace=wrap;rounded=0;fontColor=#FFFFFF;" vertex="1" parent="PlhKzF1dePJYbplFn7f4-12">
          <mxGeometry width="80" height="20" as="geometry" />
        </mxCell>
        <mxCell id="PlhKzF1dePJYbplFn7f4-13" value="" style="group" vertex="1" connectable="0" parent="1">
          <mxGeometry x="290" y="70" width="80" height="50" as="geometry" />
        </mxCell>
        <mxCell id="PlhKzF1dePJYbplFn7f4-14" value="&lt;font color=&quot;#1A1A1A&quot;&gt;MuxPC&lt;/font&gt;" style="shape=trapezoid;perimeter=trapezoidPerimeter;whiteSpace=wrap;html=1;fixedSize=1;fontColor=#FFFFFF;direction=west;" vertex="1" parent="PlhKzF1dePJYbplFn7f4-13">
          <mxGeometry width="80" height="50" as="geometry" />
        </mxCell>
        <mxCell id="PlhKzF1dePJYbplFn7f4-15" value="0&lt;font color=&quot;#1A1A1A&quot;&gt;0 &amp;nbsp; &amp;nbsp; &amp;nbsp; &amp;nbsp; &amp;nbsp;&amp;nbsp; 1&lt;br&gt;&lt;/font&gt;" style="text;html=1;strokeColor=none;fillColor=none;align=center;verticalAlign=middle;whiteSpace=wrap;rounded=0;fontColor=#FFFFFF;" vertex="1" parent="PlhKzF1dePJYbplFn7f4-13">
          <mxGeometry width="80" height="20" as="geometry" />
        </mxCell>
        <mxCell id="PlhKzF1dePJYbplFn7f4-16" value="&lt;div&gt;MuxY&lt;/div&gt;&lt;div&gt;(Return Address) &lt;br&gt;&lt;/div&gt;" style="text;html=1;strokeColor=none;fillColor=none;align=center;verticalAlign=middle;whiteSpace=wrap;rounded=0;fontColor=#1A1A1A;" vertex="1" parent="1">
          <mxGeometry x="130" y="330" width="160" height="20" as="geometry" />
        </mxCell>
        <mxCell id="PlhKzF1dePJYbplFn7f4-24" style="edgeStyle=orthogonalEdgeStyle;rounded=0;orthogonalLoop=1;jettySize=auto;html=1;entryX=0.25;entryY=0;entryDx=0;entryDy=0;fontColor=#00CC00;" edge="1" parent="1" source="PlhKzF1dePJYbplFn7f4-17" target="PlhKzF1dePJYbplFn7f4-15">
          <mxGeometry relative="1" as="geometry" />
        </mxCell>
        <mxCell id="PlhKzF1dePJYbplFn7f4-17" value="RA" style="text;html=1;strokeColor=none;fillColor=none;align=center;verticalAlign=middle;whiteSpace=wrap;rounded=0;fontColor=#1A1A1A;" vertex="1" parent="1">
          <mxGeometry x="290" y="20" width="40" height="20" as="geometry" />
        </mxCell>
        <mxCell id="PlhKzF1dePJYbplFn7f4-21" style="edgeStyle=orthogonalEdgeStyle;rounded=0;orthogonalLoop=1;jettySize=auto;html=1;entryX=0.25;entryY=0;entryDx=0;entryDy=0;fontColor=#00CC00;" edge="1" parent="1" source="PlhKzF1dePJYbplFn7f4-18" target="PlhKzF1dePJYbplFn7f4-6">
          <mxGeometry relative="1" as="geometry" />
        </mxCell>
        <mxCell id="PlhKzF1dePJYbplFn7f4-18" value="4" style="text;html=1;strokeColor=none;fillColor=none;align=center;verticalAlign=middle;whiteSpace=wrap;rounded=0;fontColor=#1A1A1A;" vertex="1" parent="1">
          <mxGeometry x="424" y="110" width="40" height="20" as="geometry" />
        </mxCell>
        <mxCell id="PlhKzF1dePJYbplFn7f4-20" style="edgeStyle=orthogonalEdgeStyle;rounded=0;orthogonalLoop=1;jettySize=auto;html=1;entryX=0.75;entryY=0;entryDx=0;entryDy=0;fontColor=#00CC00;strokeColor=#00CC00;" edge="1" parent="1" source="PlhKzF1dePJYbplFn7f4-19" target="PlhKzF1dePJYbplFn7f4-6">
          <mxGeometry relative="1" as="geometry" />
        </mxCell>
        <mxCell id="PlhKzF1dePJYbplFn7f4-19" value="&lt;div&gt;Immediate value&lt;/div&gt;&lt;div&gt;(Branch offset)&lt;br&gt;&lt;/div&gt;" style="text;html=1;strokeColor=none;fillColor=none;align=center;verticalAlign=middle;whiteSpace=wrap;rounded=0;fontColor=#1A1A1A;" vertex="1" parent="1">
          <mxGeometry x="464" y="110" width="160" height="20" as="geometry" />
        </mxCell>
        <mxCell id="PlhKzF1dePJYbplFn7f4-25" style="edgeStyle=orthogonalEdgeStyle;rounded=0;orthogonalLoop=1;jettySize=auto;html=1;fontColor=#00CC00;strokeColor=#00CC00;" edge="1" parent="1" source="PlhKzF1dePJYbplFn7f4-14">
          <mxGeometry relative="1" as="geometry">
            <mxPoint x="330" y="150" as="targetPoint" />
          </mxGeometry>
        </mxCell>
        <mxCell id="PlhKzF1dePJYbplFn7f4-27" style="edgeStyle=orthogonalEdgeStyle;rounded=0;orthogonalLoop=1;jettySize=auto;html=1;entryX=0.028;entryY=0.15;entryDx=0;entryDy=0;entryPerimeter=0;strokeColor=#00CC00;fontColor=#00CC00;" edge="1" parent="1" source="PlhKzF1dePJYbplFn7f4-5" target="PlhKzF1dePJYbplFn7f4-2">
          <mxGeometry relative="1" as="geometry" />
        </mxCell>
        <mxCell id="PlhKzF1dePJYbplFn7f4-28" style="edgeStyle=orthogonalEdgeStyle;rounded=0;orthogonalLoop=1;jettySize=auto;html=1;entryX=0.75;entryY=0;entryDx=0;entryDy=0;strokeColor=#00CC00;fontColor=#00CC00;exitX=1;exitY=0.5;exitDx=0;exitDy=0;" edge="1" parent="1" source="PlhKzF1dePJYbplFn7f4-2" target="PlhKzF1dePJYbplFn7f4-15">
          <mxGeometry relative="1" as="geometry">
            <Array as="points">
              <mxPoint x="414" y="350" />
              <mxPoint x="600" y="350" />
              <mxPoint x="600" y="50" />
              <mxPoint x="350" y="50" />
            </Array>
          </mxGeometry>
        </mxCell>
      </root>
    </mxGraphModel>
  </diagram>
</mxfile>
